<svg xmlns="http://www.w3.org/2000/svg" viewBox="0 0 760 430" class="arthur-fig" role="img" aria-label="Recruitment retained during an incremental and decremental PEEP trial">
<style>
  svg.arthur-fig .bg { fill: none }
  svg.arthur-fig .axis { stroke: var(--fig-axis, #9aa4b2); stroke-width: 1 }
  svg.arthur-fig .grid { stroke: var(--fig-grid, #d7dce3); stroke-width: 1; stroke-dasharray: 2 4 }
  svg.arthur-fig .tick { fill: var(--fig-muted, #6b7480); font: 11px system-ui, sans-serif }
  svg.arthur-fig .label { fill: var(--fig-text, #2b3138); font: 12px system-ui, sans-serif }
  svg.arthur-fig .title { fill: var(--fig-text, #2b3138); font: 600 13px system-ui, sans-serif }
  svg.arthur-fig .lm { stroke: var(--fig-grid, #d7dce3); stroke-width: 1 }
  svg.arthur-fig .lm-text { fill: var(--fig-muted, #6b7480); font: 600 11px system-ui, sans-serif }
  svg.arthur-fig .total { stroke: var(--fig-total, #1f6feb); stroke-width: 2.5; fill: none }
  svg.arthur-fig .alv { stroke: var(--fig-alv, #d1495b); stroke-width: 1.6; fill: none; stroke-dasharray: 6 3 }
  svg.arthur-fig .extra { stroke: var(--fig-extra, #2a9d8f); stroke-width: 1.6; fill: none; stroke-dasharray: 6 3 }
  svg.arthur-fig .nadir { stroke: var(--fig-total, #1f6feb); stroke-width: 1; stroke-dasharray: 3 3 }
  svg.arthur-fig .dot { fill: var(--fig-total, #1f6feb); stroke: none }
  @media (prefers-color-scheme: dark) {
    svg.arthur-fig .axis { stroke: #5b6472 }
    svg.arthur-fig .grid, svg.arthur-fig .lm { stroke: #363d47 }
    svg.arthur-fig .tick, svg.arthur-fig .lm-text { fill: #8b95a3 }
    svg.arthur-fig .label, svg.arthur-fig .title { fill: #d6dbe2 }
    svg.arthur-fig .total, svg.arthur-fig .nadir { stroke: #58a6ff }
    svg.arthur-fig .dot { fill: #58a6ff }
    svg.arthur-fig .alv { stroke: #f08c9a }
    svg.arthur-fig .extra { stroke: #4fd1c1 }
  }
</style>
<rect class="bg" width="760" height="430"/>
<text class="title" x="66" y="16">Recruitment retained during an incremental and decremental PEEP trial</text>
<line class="grid" x1="66" y1="378.0" x2="560" y2="378.0"/><text class="tick" x="57" y="382.0" text-anchor="end">60</text>
<line class="grid" x1="66" y1="338.9" x2="560" y2="338.9"/><text class="tick" x="57" y="342.9" text-anchor="end">65</text>
<line class="grid" x1="66" y1="299.8" x2="560" y2="299.8"/><text class="tick" x="57" y="303.8" text-anchor="end">70</text>
<line class="grid" x1="66" y1="260.7" x2="560" y2="260.7"/><text class="tick" x="57" y="264.7" text-anchor="end">75</text>
<line class="grid" x1="66" y1="221.6" x2="560" y2="221.6"/><text class="tick" x="57" y="225.6" text-anchor="end">80</text>
<line class="grid" x1="66" y1="182.4" x2="560" y2="182.4"/><text class="tick" x="57" y="186.4" text-anchor="end">85</text>
<line class="grid" x1="66" y1="143.3" x2="560" y2="143.3"/><text class="tick" x="57" y="147.3" text-anchor="end">90</text>
<line class="grid" x1="66" y1="104.2" x2="560" y2="104.2"/><text class="tick" x="57" y="108.2" text-anchor="end">95</text>
<line class="grid" x1="66" y1="65.1" x2="560" y2="65.1"/><text class="tick" x="57" y="69.1" text-anchor="end">100</text>
<text class="tick" x="120.9" y="396" text-anchor="middle">15</text>
<text class="tick" x="212.4" y="396" text-anchor="middle">20</text>
<text class="tick" x="303.9" y="396" text-anchor="middle">25</text>
<text class="tick" x="395.3" y="396" text-anchor="middle">30</text>
<text class="tick" x="486.8" y="396" text-anchor="middle">35</text>
<line class="axis" x1="66" y1="26" x2="66" y2="378"/>
<line class="axis" x1="66" y1="378.0" x2="560" y2="378.0"/>
<path class="total" style="stroke-dasharray:none" d="M132.8 336.7 L155.6 293.3 L177.3 246.5 L199.2 202.7 L223.6 172.5 L282.5 161.0 L343.9 160.8 L405.5 160.8 L467.1 160.8 L528.7 160.8"/>
<path class="alv" style="stroke-dasharray:none" d="M528.7 160.8 L467.1 160.8 L405.5 160.8 L343.9 160.8 L282.5 160.8 L221.1 160.8 L190.4 160.8 L159.8 160.8 L129.1 160.8 L98.5 160.8"/>
<text class="label" transform="translate(18 202) rotate(-90)" text-anchor="middle">Lung open (%)</text>
<text class="label" x="313" y="424" text-anchor="middle">End-expiratory transpulmonary pressure (cmH₂O)</text>
<line class="total" style="stroke-dasharray:none" x1="576" y1="48" x2="604" y2="48"/><text class="label" x="610" y="52">incremental</text>
<line class="alv" style="stroke-dasharray:none" x1="576" y1="70" x2="604" y2="70"/><text class="label" x="610" y="74">decremental</text>
<text class="tick" x="576" y="110">only the collapsed but recruitable</text>
<text class="tick" x="576" y="126">part of the lung retains memory</text>
<text class="tick" x="576" y="142">on the way down</text>
</svg>
