<svg xmlns="http://www.w3.org/2000/svg" viewBox="0 0 760 520" class="arthur-fig" role="img"
  aria-label="Two aligned model plots against selected stressed volume. Pulse pressure variation is low at severe underfilling, rises and falls through intermediate filling, and rises again at high filling. Preload reserve falls steadily as filling increases, showing that low pulse pressure variation does not identify a full circulation.">
<style>
  svg.arthur-fig .bg { fill: none }
  svg.arthur-fig .axis { stroke: var(--fig-axis, #9aa4b2); stroke-width: 1 }
  svg.arthur-fig .grid { stroke: var(--fig-grid, #d7dce3); stroke-width: 1; stroke-dasharray: 2 4 }
  svg.arthur-fig .tick { fill: var(--fig-muted, #6b7480); font: 11px system-ui, sans-serif }
  svg.arthur-fig .label { fill: var(--fig-text, #2b3138); font: 12px system-ui, sans-serif }
  svg.arthur-fig .title { fill: var(--fig-text, #2b3138); font: 600 13px system-ui, sans-serif }
  svg.arthur-fig .lm { stroke: var(--fig-grid, #d7dce3); stroke-width: 1 }
  svg.arthur-fig .lm-text { fill: var(--fig-muted, #6b7480); font: 600 11px system-ui, sans-serif }
  svg.arthur-fig .total { stroke: var(--fig-total, #1f6feb); stroke-width: 2.5; fill: none }
  svg.arthur-fig .alv { stroke: var(--fig-alv, #d1495b); stroke-width: 1.6; fill: none; stroke-dasharray: 6 3 }
  svg.arthur-fig .extra { stroke: var(--fig-extra, #2a9d8f); stroke-width: 1.6; fill: none; stroke-dasharray: 6 3 }
  svg.arthur-fig .nadir { stroke: var(--fig-total, #1f6feb); stroke-width: 1; stroke-dasharray: 3 3 }
  svg.arthur-fig .dot { fill: var(--fig-total, #1f6feb); stroke: none }
  @media (prefers-color-scheme: dark) {
    svg.arthur-fig .axis { stroke: #5b6472 }
    svg.arthur-fig .grid, svg.arthur-fig .lm { stroke: #363d47 }
    svg.arthur-fig .tick, svg.arthur-fig .lm-text { fill: #8b95a3 }
    svg.arthur-fig .label, svg.arthur-fig .title { fill: #d6dbe2 }
    svg.arthur-fig .total, svg.arthur-fig .nadir { stroke: #58a6ff }
    svg.arthur-fig .dot { fill: #58a6ff }
    svg.arthur-fig .alv { stroke: #f08c9a }
    svg.arthur-fig .extra { stroke: #4fd1c1 }
  }
</style>
<rect class="bg" width="760" height="520"/>
<text class="title" x="72" y="18">PPV does not identify filling state in the model</text>
<line class="grid" x1="72" y1="226.0" x2="580" y2="226.0"/><text class="tick" x="63" y="230.0" text-anchor="end">0</text>
<line class="grid" x1="72" y1="180.5" x2="580" y2="180.5"/><text class="tick" x="63" y="184.5" text-anchor="end">2</text>
<line class="grid" x1="72" y1="135.0" x2="580" y2="135.0"/><text class="tick" x="63" y="139.0" text-anchor="end">4</text>
<line class="grid" x1="72" y1="89.5" x2="580" y2="89.5"/><text class="tick" x="63" y="93.5" text-anchor="end">6</text>
<line class="grid" x1="72" y1="44.0" x2="580" y2="44.0"/><text class="tick" x="63" y="48.0" text-anchor="end">8</text>
<line class="grid" x1="72" y1="466.0" x2="580" y2="466.0"/><text class="tick" x="63" y="470.0" text-anchor="end">0</text>
<line class="grid" x1="72" y1="420.5" x2="580" y2="420.5"/><text class="tick" x="63" y="424.5" text-anchor="end">5</text>
<line class="grid" x1="72" y1="375.0" x2="580" y2="375.0"/><text class="tick" x="63" y="379.0" text-anchor="end">10</text>
<line class="grid" x1="72" y1="329.5" x2="580" y2="329.5"/><text class="tick" x="63" y="333.5" text-anchor="end">15</text>
<line class="grid" x1="72" y1="284.0" x2="580" y2="284.0"/><text class="tick" x="63" y="288.0" text-anchor="end">20</text>
<text class="tick" x="94.1" y="485" text-anchor="middle">300</text>
<text class="tick" x="182.4" y="485" text-anchor="middle">500</text>
<text class="tick" x="270.8" y="485" text-anchor="middle">700</text>
<text class="tick" x="359.1" y="485" text-anchor="middle">900</text>
<text class="tick" x="447.5" y="485" text-anchor="middle">1100</text>
<text class="tick" x="535.8" y="485" text-anchor="middle">1300</text>
<line class="axis" x1="72" y1="44" x2="72" y2="226"/>
<line class="axis" x1="72" y1="226" x2="580" y2="226"/>
<line class="axis" x1="72" y1="284" x2="72" y2="466"/>
<line class="axis" x1="72" y1="466" x2="580" y2="466"/>
<path class="total" d="M72.0 163.6 L94.1 170.2 L116.2 176.3 L138.3 177.9 L160.3 140.1 L182.4 98.3 L226.6 66.7 L270.8 117.3 L315.0 168.7 L359.1 206.0 L403.3 176.1 L447.5 138.3 L491.7 117.6 L535.8 114.9 L580.0 117.6"/>
<path class="extra" style="stroke-dasharray:none;stroke-width:2.5" d="M72.0 312.1 L94.1 321.1 L116.2 329.8 L138.3 337.7 L160.3 345.7 L182.4 353.6 L226.6 368.7 L270.8 382.6 L315.0 394.3 L359.1 404.0 L403.3 411.6 L447.5 417.4 L491.7 421.9 L535.8 425.5 L580.0 428.3"/>
<circle cx="94.1" cy="170.2" r="3.5" style="fill:var(--fig-total, #1f6feb);stroke:none"/>
<circle cx="94.1" cy="321.1" r="3.5" style="fill:var(--fig-extra, #2a9d8f);stroke:none"/>
<circle cx="580.0" cy="117.6" r="3.5" style="fill:var(--fig-total, #1f6feb);stroke:none"/>
<circle cx="580.0" cy="428.3" r="3.5" style="fill:var(--fig-extra, #2a9d8f);stroke:none"/>
<text class="label" x="72" y="35">PPV (%) — respiratory waveform variation</text>
<text class="label" x="72" y="275">Preload reserve (% of output per mmHg)</text>
<text class="label" x="326" y="513" text-anchor="middle">Selected stressed volume (mL)</text>
<line class="total" x1="598" y1="62" x2="628" y2="62"/>
<text class="label" x="635" y="66">PPV</text>
<line class="extra" style="stroke-dasharray:none;stroke-width:2.5" x1="598" y1="86" x2="628" y2="86"/>
<text class="label" x="635" y="90">preload reserve</text>
<text class="tick" x="598" y="123">At 300 mL:</text>
<text class="tick" x="598" y="139">2.5% PPV,</text>
<text class="tick" x="598" y="155">15.9%/mmHg reserve</text>
<text class="tick" x="598" y="183">At 1400 mL:</text>
<text class="tick" x="598" y="199">4.8% PPV,</text>
<text class="tick" x="598" y="215">4.1%/mmHg reserve</text>
<text class="tick" x="598" y="312">Same passive breath</text>
<text class="tick" x="598" y="328">at every point.</text>
<text class="tick" x="598" y="356">Model example;</text>
<text class="tick" x="598" y="372">not bedside cutoffs.</text>
</svg>
