<svg xmlns="http://www.w3.org/2000/svg" viewBox="0 0 760 430" class="arthur-fig" role="img" aria-label="Pulse pressure changes from beat to beat during one passive breath">
<style>
  svg.arthur-fig .bg { fill: none }
  svg.arthur-fig .axis { stroke: var(--fig-axis, #9aa4b2); stroke-width: 1 }
  svg.arthur-fig .grid { stroke: var(--fig-grid, #d7dce3); stroke-width: 1; stroke-dasharray: 2 4 }
  svg.arthur-fig .tick { fill: var(--fig-muted, #6b7480); font: 11px system-ui, sans-serif }
  svg.arthur-fig .label { fill: var(--fig-text, #2b3138); font: 12px system-ui, sans-serif }
  svg.arthur-fig .title { fill: var(--fig-text, #2b3138); font: 600 13px system-ui, sans-serif }
  svg.arthur-fig .lm { stroke: var(--fig-grid, #d7dce3); stroke-width: 1 }
  svg.arthur-fig .lm-text { fill: var(--fig-muted, #6b7480); font: 600 11px system-ui, sans-serif }
  svg.arthur-fig .total { stroke: var(--fig-total, #1f6feb); stroke-width: 2.5; fill: none }
  svg.arthur-fig .alv { stroke: var(--fig-alv, #d1495b); stroke-width: 1.6; fill: none; stroke-dasharray: 6 3 }
  svg.arthur-fig .extra { stroke: var(--fig-extra, #2a9d8f); stroke-width: 1.6; fill: none; stroke-dasharray: 6 3 }
  svg.arthur-fig .nadir { stroke: var(--fig-total, #1f6feb); stroke-width: 1; stroke-dasharray: 3 3 }
  svg.arthur-fig .dot { fill: var(--fig-total, #1f6feb); stroke: none }
  @media (prefers-color-scheme: dark) {
    svg.arthur-fig .axis { stroke: #5b6472 }
    svg.arthur-fig .grid, svg.arthur-fig .lm { stroke: #363d47 }
    svg.arthur-fig .tick, svg.arthur-fig .lm-text { fill: #8b95a3 }
    svg.arthur-fig .label, svg.arthur-fig .title { fill: #d6dbe2 }
    svg.arthur-fig .total, svg.arthur-fig .nadir { stroke: #58a6ff }
    svg.arthur-fig .dot { fill: #58a6ff }
    svg.arthur-fig .alv { stroke: #f08c9a }
    svg.arthur-fig .extra { stroke: #4fd1c1 }
  }
</style>
<rect class="bg" width="760" height="430"/>
<text class="title" x="66" y="16">Pulse pressure changes from beat to beat during one passive breath</text>
<line class="grid" x1="66" y1="378.0" x2="610" y2="378.0"/><text class="tick" x="57" y="382.0" text-anchor="end">60</text>
<line class="grid" x1="66" y1="307.6" x2="610" y2="307.6"/><text class="tick" x="57" y="311.6" text-anchor="end">70</text>
<line class="grid" x1="66" y1="237.2" x2="610" y2="237.2"/><text class="tick" x="57" y="241.2" text-anchor="end">80</text>
<line class="grid" x1="66" y1="166.8" x2="610" y2="166.8"/><text class="tick" x="57" y="170.8" text-anchor="end">90</text>
<line class="grid" x1="66" y1="96.4" x2="610" y2="96.4"/><text class="tick" x="57" y="100.4" text-anchor="end">100</text>
<text class="tick" x="66.0" y="396" text-anchor="middle">0</text>
<text class="tick" x="202.0" y="396" text-anchor="middle">1</text>
<text class="tick" x="338.0" y="396" text-anchor="middle">2</text>
<text class="tick" x="474.0" y="396" text-anchor="middle">3</text>
<text class="tick" x="610.0" y="396" text-anchor="middle">4</text>
<line class="axis" x1="66" y1="26" x2="66" y2="378"/>
<line class="axis" x1="66" y1="378.0" x2="610" y2="378.0"/>
<path class="total" style="stroke-dasharray:none" d="M66.0 194.2 L66.7 196.1 L67.4 197.9 L68.0 199.8 L68.7 201.7 L69.4 203.5 L70.1 205.4 L70.8 207.2 L71.4 209.1 L72.1 210.9 L72.8 212.7 L73.5 214.5 L74.2 216.4 L74.8 218.2 L75.5 220.0 L76.2 221.8 L76.9 223.5 L77.6 225.3 L78.2 227.1 L78.9 228.9 L79.6 230.6 L80.3 232.4 L81.0 234.2 L81.6 235.9 L82.3 237.6 L83.0 239.4 L83.7 241.1 L84.4 242.8 L85.0 244.6 L85.7 246.3 L86.4 248.0 L87.1 249.7 L87.8 251.4 L88.4 253.1 L89.1 254.7 L89.8 256.4 L90.5 258.1 L91.2 259.8 L91.8 261.4 L92.5 263.1 L93.2 264.7 L93.9 266.4 L94.6 268.0 L95.2 269.6 L95.9 271.3 L96.6 272.9 L97.3 274.5 L98.0 276.1 L98.6 277.7 L99.3 279.3 L100.0 280.9 L100.7 282.5 L101.4 284.1 L102.0 285.7 L102.7 287.2 L103.4 288.8 L104.1 290.4 L104.8 291.9 L105.4 293.5 L106.1 295.0 L106.8 296.6 L107.5 296.9 L108.2 287.0 L108.8 273.1 L109.5 258.8 L110.2 245.1 L110.9 232.1 L111.6 219.9 L112.2 208.5 L112.9 197.9 L113.6 188.0 L114.3 178.8 L115.0 170.3 L115.6 162.4 L116.3 155.1 L117.0 148.3 L117.7 142.0 L118.4 136.3 L119.0 130.9 L119.7 126.0 L120.4 121.5 L121.1 117.3 L121.8 113.5 L122.4 110.0 L123.1 106.9 L123.8 103.9 L124.5 101.3 L125.2 98.9 L125.8 96.8 L126.5 94.8 L127.2 93.1 L127.9 91.7 L128.6 90.4 L129.2 89.4 L129.9 88.6 L130.6 88.1 L131.3 87.9 L132.0 88.1 L132.6 88.7 L133.3 89.8 L134.0 91.5 L134.7 93.7 L135.4 95.9 L136.0 98.1 L136.7 100.3 L137.4 102.5 L138.1 104.7 L138.8 106.9 L139.4 109.0 L140.1 111.2 L140.8 113.3 L141.5 115.5 L142.2 117.6 L142.8 119.8 L143.5 121.9 L144.2 124.0 L144.9 126.1 L145.6 128.2 L146.2 130.3 L146.9 132.4 L147.6 134.5 L148.3 136.6 L149.0 138.7 L149.6 140.7 L150.3 142.8 L151.0 144.8 L151.7 146.9 L152.4 148.9 L153.0 150.9 L153.7 152.9 L154.4 155.0 L155.1 157.0 L155.8 159.0 L156.4 161.0 L157.1 163.0 L157.8 164.9 L158.5 166.9 L159.2 168.9 L159.8 170.8 L160.5 172.8 L161.2 174.7 L161.9 176.7 L162.6 178.6 L163.2 180.5 L163.9 182.5 L164.6 184.4 L165.3 186.3 L166.0 188.2 L166.6 190.1 L167.3 192.0 L168.0 193.9 L168.7 195.7 L169.4 197.6 L170.0 199.5 L170.7 201.3 L171.4 203.2 L172.1 205.0 L172.8 206.9 L173.4 208.7 L174.1 210.5 L174.8 212.3 L175.5 214.1 L176.2 216.0 L176.8 217.8 L177.5 219.5 L178.2 221.3 L178.9 223.1 L179.6 224.9 L180.2 226.7 L180.9 228.4 L181.6 230.2 L182.3 231.9 L183.0 233.7 L183.6 235.4 L184.3 237.2 L185.0 238.9 L185.7 240.6 L186.4 242.3 L187.0 244.1 L187.7 245.8 L188.4 247.5 L189.1 249.2 L189.8 250.8 L190.4 252.5 L191.1 254.2 L191.8 255.9 L192.5 257.5 L193.2 259.2 L193.8 260.9 L194.5 262.5 L195.2 264.1 L195.9 265.8 L196.6 267.4 L197.2 269.0 L197.9 270.7 L198.6 272.3 L199.3 273.9 L200.0 275.5 L200.6 277.1 L201.3 278.7 L202.0 280.3 L202.7 281.9 L203.4 283.4 L204.0 285.0 L204.7 286.6 L205.4 288.1 L206.1 289.7 L206.8 291.3 L207.4 292.8 L208.1 294.3 L208.8 295.9 L209.5 297.4 L210.2 292.2 L210.8 279.1 L211.5 264.5 L212.2 250.2 L212.9 236.5 L213.6 223.6 L214.2 211.6 L214.9 200.3 L215.6 189.7 L216.3 180.0 L217.0 170.9 L217.6 162.4 L218.3 154.6 L219.0 147.3 L219.7 140.6 L220.4 134.5 L221.0 128.7 L221.7 123.5 L222.4 118.6 L223.1 114.2 L223.8 110.1 L224.4 106.3 L225.1 102.9 L225.8 99.7 L226.5 96.9 L227.2 94.3 L227.8 91.9 L228.5 89.8 L229.2 87.9 L229.9 86.4 L230.6 85.1 L231.2 84.1 L231.9 83.2 L232.6 82.6 L233.3 82.3 L234.0 82.3 L234.6 82.6 L235.3 83.4 L236.0 84.6 L236.7 86.5 L237.4 88.8 L238.0 91.0 L238.7 93.2 L239.4 95.4 L240.1 97.6 L240.8 99.8 L241.4 102.0 L242.1 104.2 L242.8 106.4 L243.5 108.5 L244.2 110.7 L244.8 112.9 L245.5 115.0 L246.2 117.2 L246.9 119.3 L247.6 121.4 L248.2 123.5 L248.9 125.6 L249.6 127.8 L250.3 129.9 L251.0 131.9 L251.6 134.0 L252.3 136.1 L253.0 138.2 L253.7 140.2 L254.4 142.3 L255.0 144.4 L255.7 146.4 L256.4 148.4 L257.1 150.5 L257.8 152.5 L258.4 154.5 L259.1 156.5 L259.8 158.5 L260.5 160.5 L261.2 162.5 L261.8 164.5 L262.5 166.5 L263.2 168.4 L263.9 170.4 L264.6 172.4 L265.2 174.3 L265.9 176.3 L266.6 178.2 L267.3 180.1 L268.0 182.1 L268.6 184.0 L269.3 185.9 L270.0 187.8 L270.7 189.7 L271.4 191.6 L272.0 193.5 L272.7 195.4 L273.4 197.2 L274.1 199.1 L274.8 201.0 L275.4 202.8 L276.1 204.7 L276.8 206.5 L277.5 208.3 L278.2 210.2 L278.8 212.0 L279.5 213.8 L280.2 215.6 L280.9 217.4 L281.6 219.2 L282.2 221.0 L282.9 222.8 L283.6 224.6 L284.3 226.4 L285.0 228.2 L285.6 229.9 L286.3 231.7 L287.0 233.4 L287.7 235.2 L288.4 236.9 L289.0 238.7 L289.7 240.4 L290.4 242.1 L291.1 243.8 L291.8 245.5 L292.4 247.3 L293.1 249.0 L293.8 250.7 L294.5 252.3 L295.2 254.0 L295.8 255.7 L296.5 257.4 L297.2 259.0 L297.9 260.7 L298.6 262.4 L299.2 264.0 L299.9 265.7 L300.6 267.3 L301.3 268.9 L302.0 270.6 L302.6 272.2 L303.3 273.8 L304.0 275.4 L304.7 277.0 L305.4 278.6 L306.0 280.2 L306.7 281.8 L307.4 283.4 L308.1 285.0 L308.8 286.6 L309.4 288.1 L310.1 289.7 L310.8 291.3 L311.5 292.8 L312.2 294.4 L312.8 290.3 L313.5 277.6 L314.2 263.0 L314.9 248.6 L315.6 234.8 L316.2 221.8 L316.9 209.7 L317.6 198.3 L318.3 187.6 L319.0 177.8 L319.6 168.6 L320.3 160.0 L321.0 152.1 L321.7 144.8 L322.4 138.0 L323.0 131.8 L323.7 126.0 L324.4 120.7 L325.1 115.8 L325.8 111.2 L326.4 107.1 L327.1 103.3 L327.8 99.8 L328.5 96.6 L329.2 93.7 L329.8 91.1 L330.5 88.7 L331.2 86.6 L331.9 84.7 L332.6 83.0 L333.2 81.5 L333.9 80.3 L334.6 79.3 L335.3 78.6 L336.0 78.2 L336.6 78.0 L337.3 78.3 L338.0 79.0 L338.7 80.2 L339.4 82.1 L340.0 84.4 L340.7 86.6 L341.4 88.9 L342.1 91.1 L342.8 93.3 L343.4 95.5 L344.1 97.7 L344.8 99.9 L345.5 102.1 L346.2 104.3 L346.8 106.5 L347.5 108.7 L348.2 110.9 L348.9 113.0 L349.6 115.2 L350.2 117.3 L350.9 119.5 L351.6 121.6 L352.3 123.7 L353.0 125.8 L353.6 127.9 L354.3 130.0 L355.0 132.1 L355.7 134.2 L356.4 136.3 L357.0 138.4 L357.7 140.4 L358.4 142.5 L359.1 144.6 L359.8 146.6 L360.4 148.6 L361.1 150.7 L361.8 152.7 L362.5 154.7 L363.2 156.7 L363.8 158.7 L364.5 160.7 L365.2 162.7 L365.9 164.7 L366.6 166.7 L367.2 168.7 L367.9 170.6 L368.6 172.6 L369.3 174.5 L370.0 176.5 L370.6 178.4 L371.3 180.4 L372.0 182.3 L372.7 184.2 L373.4 186.1 L374.0 188.0 L374.7 189.9 L375.4 191.8 L376.1 193.7 L376.8 195.6 L377.4 197.5 L378.1 199.3 L378.8 201.2 L379.5 203.1 L380.2 204.9 L380.8 206.8 L381.5 208.6 L382.2 210.4 L382.9 212.2 L383.6 214.1 L384.2 215.9 L384.9 217.7 L385.6 219.5 L386.3 221.3 L387.0 223.1 L387.6 224.9 L388.3 226.6 L389.0 228.4 L389.7 230.2 L390.4 231.9 L391.0 233.7 L391.7 235.4 L392.4 237.2 L393.1 238.9 L393.8 240.6 L394.4 242.4 L395.1 244.1 L395.8 245.8 L396.5 247.5 L397.2 249.2 L397.8 250.9 L398.5 252.6 L399.2 254.3 L399.9 256.0 L400.6 257.6 L401.2 259.3 L401.9 261.0 L402.6 262.6 L403.3 264.3 L404.0 265.9 L404.6 267.6 L405.3 269.2 L406.0 270.8 L406.7 272.4 L407.4 274.1 L408.0 275.7 L408.7 277.3 L409.4 278.9 L410.1 280.5 L410.8 282.1 L411.4 283.7 L412.1 285.2 L412.8 286.8 L413.5 288.4 L414.2 290.0 L414.8 291.5 L415.5 287.8 L416.2 275.1 L416.9 260.7 L417.6 246.3 L418.2 232.6 L418.9 219.7 L419.6 207.6 L420.3 196.3 L421.0 185.8 L421.6 176.0 L422.3 166.8 L423.0 158.4 L423.7 150.5 L424.4 143.2 L425.0 136.5 L425.7 130.3 L426.4 124.6 L427.1 119.3 L427.8 114.4 L428.4 110.0 L429.1 105.8 L429.8 102.1 L430.5 98.6 L431.2 95.5 L431.8 92.6 L432.5 90.0 L433.2 87.6 L433.9 85.5 L434.6 83.6 L435.2 82.0 L435.9 80.5 L436.6 79.3 L437.3 78.4 L438.0 77.7 L438.6 77.3 L439.3 77.2 L440.0 77.5 L440.7 78.2 L441.4 79.5 L442.0 81.5 L442.7 83.8 L443.4 86.0 L444.1 88.3 L444.8 90.5 L445.4 92.7 L446.1 95.0 L446.8 97.2 L447.5 99.4 L448.2 101.6 L448.8 103.8 L449.5 106.0 L450.2 108.1 L450.9 110.3 L451.6 112.5 L452.2 114.6 L452.9 116.8 L453.6 118.9 L454.3 121.0 L455.0 123.2 L455.6 125.3 L456.3 127.4 L457.0 129.5 L457.7 131.6 L458.4 133.7 L459.0 135.8 L459.7 137.9 L460.4 139.9 L461.1 142.0 L461.8 144.0 L462.4 146.1 L463.1 148.1 L463.8 150.2 L464.5 152.2 L465.2 154.2 L465.8 156.2 L466.5 158.2 L467.2 160.2 L467.9 162.2 L468.6 164.2 L469.2 166.2 L469.9 168.2 L470.6 170.1 L471.3 172.1 L472.0 174.1 L472.6 176.0 L473.3 178.0 L474.0 179.9 L474.7 181.8 L475.4 183.7 L476.0 185.7 L476.7 187.6 L477.4 189.5 L478.1 191.4 L478.8 193.3 L479.4 195.1 L480.1 197.0 L480.8 198.9 L481.5 200.8 L482.2 202.6 L482.8 204.5 L483.5 206.3 L484.2 208.2 L484.9 210.0 L485.6 211.8 L486.2 213.6 L486.9 215.5 L487.6 217.3 L488.3 219.1 L489.0 220.9 L489.6 222.7 L490.3 224.4 L491.0 226.2 L491.7 228.0 L492.4 229.8 L493.0 231.5 L493.7 233.3 L494.4 235.0 L495.1 236.8 L495.8 238.5 L496.4 240.3 L497.1 242.0 L497.8 243.7 L498.5 245.4 L499.2 247.1 L499.8 248.8 L500.5 250.5 L501.2 252.2 L501.9 253.9 L502.6 255.6 L503.2 257.3 L503.9 258.9 L504.6 260.6 L505.3 262.3 L506.0 263.9 L506.6 265.6 L507.3 267.2 L508.0 268.8 L508.7 270.5 L509.4 272.1 L510.0 273.7 L510.7 275.3 L511.4 276.9 L512.1 278.5 L512.8 280.1 L513.4 281.7 L514.1 283.3 L514.8 284.9 L515.5 286.5 L516.2 288.1 L516.8 289.6 L517.5 291.2 L518.2 290.3 L518.9 279.3 L519.6 265.3 L520.2 251.2 L520.9 237.7 L521.6 225.0 L522.3 213.1 L523.0 201.9 L523.6 191.5 L524.3 181.8 L525.0 172.8 L525.7 164.5 L526.4 156.8 L527.0 149.6 L527.7 143.0 L528.4 136.9 L529.1 131.2 L529.8 126.0 L530.4 121.3 L531.1 116.8 L531.8 112.8 L532.5 109.1 L533.2 105.7 L533.8 102.6 L534.5 99.8 L535.2 97.2 L535.9 94.9 L536.6 92.8 L537.2 91.0 L537.9 89.3 L538.6 88.0 L539.3 86.8 L540.0 85.9 L540.6 85.2 L541.3 84.8 L542.0 84.8 L542.7 85.1 L543.4 85.9 L544.0 87.2 L544.7 89.2 L545.4 91.4 L546.1 93.7 L546.8 95.9 L547.4 98.1 L548.1 100.3 L548.8 102.5 L549.5 104.7 L550.2 106.9 L550.8 109.0 L551.5 111.2 L552.2 113.4 L552.9 115.5 L553.6 117.7 L554.2 119.8 L554.9 121.9 L555.6 124.1 L556.3 126.2 L557.0 128.3 L557.6 130.4 L558.3 132.5 L559.0 134.6 L559.7 136.7 L560.4 138.7 L561.0 140.8 L561.7 142.9 L562.4 144.9 L563.1 147.0 L563.8 149.0 L564.4 151.0 L565.1 153.1 L565.8 155.1 L566.5 157.1 L567.2 159.1 L567.8 161.1 L568.5 163.1 L569.2 165.1 L569.9 167.1 L570.6 169.0 L571.2 171.0 L571.9 173.0 L572.6 174.9 L573.3 176.9 L574.0 178.8 L574.6 180.7 L575.3 182.7 L576.0 184.6 L576.7 186.5 L577.4 188.4 L578.0 190.3 L578.7 192.2 L579.4 194.1 L580.1 196.0 L580.8 197.9 L581.4 199.7 L582.1 201.6 L582.8 203.4 L583.5 205.3 L584.2 207.1 L584.8 209.0 L585.5 210.8 L586.2 212.6 L586.9 214.5 L587.6 216.3 L588.2 218.1 L588.9 219.9 L589.6 221.7 L590.3 223.5 L591.0 225.3 L591.6 227.0 L592.3 228.8 L593.0 230.6 L593.7 232.3 L594.4 234.1 L595.0 235.8 L595.7 237.6 L596.4 239.3 L597.1 241.0 L597.8 242.8 L598.4 244.5 L599.1 246.2 L599.8 247.9 L600.5 249.6 L601.2 251.3 L601.8 253.0 L602.5 254.7 L603.2 256.4 L603.9 258.0 L604.6 259.7 L605.2 261.4 L605.9 263.0 L606.6 264.7 L607.3 266.3 L608.0 268.0 L608.6 269.6 L609.3 271.2 L610.0 272.9"/>
<text class="label" transform="translate(18 202) rotate(-90)" text-anchor="middle">Systemic arterial pressure (mmHg)</text>
<text class="label" x="338" y="424" text-anchor="middle">Time from onset of inspiration (s)</text>
<line class="total" style="stroke-dasharray:none" x1="626" y1="48" x2="654" y2="48"/><text class="label" x="660" y="52">arterial pressure</text>
<text class="tick" x="626" y="88">model example: PPV 4.6%</text>
<text class="tick" x="626" y="104">inspiration lasts 1.2 s</text>
<text class="tick" x="626" y="120">the value is descriptive</text>
</svg>
