<svg xmlns="http://www.w3.org/2000/svg" viewBox="0 0 760 430" class="arthur-fig" role="img" aria-label="Pulse pressure changes from beat to beat during one passive breath">
<style>
  svg.arthur-fig .bg { fill: none }
  svg.arthur-fig .axis { stroke: var(--fig-axis, #9aa4b2); stroke-width: 1 }
  svg.arthur-fig .grid { stroke: var(--fig-grid, #d7dce3); stroke-width: 1; stroke-dasharray: 2 4 }
  svg.arthur-fig .tick { fill: var(--fig-muted, #6b7480); font: 11px system-ui, sans-serif }
  svg.arthur-fig .label { fill: var(--fig-text, #2b3138); font: 12px system-ui, sans-serif }
  svg.arthur-fig .title { fill: var(--fig-text, #2b3138); font: 600 13px system-ui, sans-serif }
  svg.arthur-fig .lm { stroke: var(--fig-grid, #d7dce3); stroke-width: 1 }
  svg.arthur-fig .lm-text { fill: var(--fig-muted, #6b7480); font: 600 11px system-ui, sans-serif }
  svg.arthur-fig .total { stroke: var(--fig-total, #1f6feb); stroke-width: 2.5; fill: none }
  svg.arthur-fig .alv { stroke: var(--fig-alv, #d1495b); stroke-width: 1.6; fill: none; stroke-dasharray: 6 3 }
  svg.arthur-fig .extra { stroke: var(--fig-extra, #2a9d8f); stroke-width: 1.6; fill: none; stroke-dasharray: 6 3 }
  svg.arthur-fig .nadir { stroke: var(--fig-total, #1f6feb); stroke-width: 1; stroke-dasharray: 3 3 }
  svg.arthur-fig .dot { fill: var(--fig-total, #1f6feb); stroke: none }
  @media (prefers-color-scheme: dark) {
    svg.arthur-fig .axis { stroke: #5b6472 }
    svg.arthur-fig .grid, svg.arthur-fig .lm { stroke: #363d47 }
    svg.arthur-fig .tick, svg.arthur-fig .lm-text { fill: #8b95a3 }
    svg.arthur-fig .label, svg.arthur-fig .title { fill: #d6dbe2 }
    svg.arthur-fig .total, svg.arthur-fig .nadir { stroke: #58a6ff }
    svg.arthur-fig .dot { fill: #58a6ff }
    svg.arthur-fig .alv { stroke: #f08c9a }
    svg.arthur-fig .extra { stroke: #4fd1c1 }
  }
</style>
<rect class="bg" width="760" height="430"/>
<text class="title" x="66" y="16">Pulse pressure changes from beat to beat during one passive breath</text>
<line class="grid" x1="66" y1="378.0" x2="610" y2="378.0"/><text class="tick" x="57" y="382.0" text-anchor="end">60</text>
<line class="grid" x1="66" y1="307.6" x2="610" y2="307.6"/><text class="tick" x="57" y="311.6" text-anchor="end">70</text>
<line class="grid" x1="66" y1="237.2" x2="610" y2="237.2"/><text class="tick" x="57" y="241.2" text-anchor="end">80</text>
<line class="grid" x1="66" y1="166.8" x2="610" y2="166.8"/><text class="tick" x="57" y="170.8" text-anchor="end">90</text>
<line class="grid" x1="66" y1="96.4" x2="610" y2="96.4"/><text class="tick" x="57" y="100.4" text-anchor="end">100</text>
<text class="tick" x="66.0" y="396" text-anchor="middle">0</text>
<text class="tick" x="202.0" y="396" text-anchor="middle">1</text>
<text class="tick" x="338.0" y="396" text-anchor="middle">2</text>
<text class="tick" x="474.0" y="396" text-anchor="middle">3</text>
<text class="tick" x="610.0" y="396" text-anchor="middle">4</text>
<line class="axis" x1="66" y1="26" x2="66" y2="378"/>
<line class="axis" x1="66" y1="378.0" x2="610" y2="378.0"/>
<path class="total" style="stroke-dasharray:none" d="M66.0 222.9 L66.7 224.7 L67.4 226.5 L68.0 228.2 L68.7 230.0 L69.4 231.8 L70.1 233.5 L70.8 235.3 L71.4 237.0 L72.1 238.8 L72.8 240.5 L73.5 242.2 L74.2 243.9 L74.8 245.6 L75.5 247.4 L76.2 249.1 L76.9 250.8 L77.6 252.5 L78.2 254.1 L78.9 255.8 L79.6 257.5 L80.3 259.2 L81.0 260.8 L81.6 262.5 L82.3 264.1 L83.0 265.8 L83.7 267.4 L84.4 269.1 L85.0 270.7 L85.7 272.3 L86.4 273.9 L87.1 275.6 L87.8 277.2 L88.4 278.8 L89.1 280.4 L89.8 282.0 L90.5 283.6 L91.2 285.1 L91.8 286.7 L92.5 288.3 L93.2 289.9 L93.9 291.4 L94.6 293.0 L95.2 294.5 L95.9 296.1 L96.6 297.6 L97.3 296.2 L98.0 284.8 L98.6 270.8 L99.3 256.7 L100.0 243.2 L100.7 230.5 L101.4 218.6 L102.0 207.5 L102.7 197.2 L103.4 187.5 L104.1 178.6 L104.8 170.3 L105.4 162.6 L106.1 155.5 L106.8 148.9 L107.5 142.8 L108.2 137.2 L108.8 132.0 L109.5 127.3 L110.2 122.9 L110.9 118.9 L111.6 115.2 L112.2 111.8 L112.9 108.7 L113.6 105.9 L114.3 103.4 L115.0 101.1 L115.6 99.0 L116.3 97.2 L117.0 95.6 L117.7 94.2 L118.4 93.0 L119.0 92.1 L119.7 91.4 L120.4 91.0 L121.1 91.0 L121.8 91.3 L122.4 92.0 L123.1 93.3 L123.8 95.3 L124.5 97.5 L125.2 99.7 L125.8 101.9 L126.5 104.1 L127.2 106.3 L127.9 108.5 L128.6 110.6 L129.2 112.8 L129.9 114.9 L130.6 117.1 L131.3 119.2 L132.0 121.4 L132.6 123.5 L133.3 125.6 L134.0 127.7 L134.7 129.8 L135.4 131.9 L136.0 134.0 L136.7 136.1 L137.4 138.1 L138.1 140.2 L138.8 142.3 L139.4 144.3 L140.1 146.4 L140.8 148.4 L141.5 150.4 L142.2 152.5 L142.8 154.5 L143.5 156.5 L144.2 158.5 L144.9 160.5 L145.6 162.5 L146.2 164.5 L146.9 166.4 L147.6 168.4 L148.3 170.4 L149.0 172.3 L149.6 174.3 L150.3 176.2 L151.0 178.2 L151.7 180.1 L152.4 182.0 L153.0 183.9 L153.7 185.8 L154.4 187.8 L155.1 189.7 L155.8 191.5 L156.4 193.4 L157.1 195.3 L157.8 197.2 L158.5 199.0 L159.2 200.9 L159.8 202.8 L160.5 204.6 L161.2 206.5 L161.9 208.3 L162.6 210.1 L163.2 211.9 L163.9 213.8 L164.6 215.6 L165.3 217.4 L166.0 219.2 L166.6 221.0 L167.3 222.7 L168.0 224.5 L168.7 226.3 L169.4 228.1 L170.0 229.8 L170.7 231.6 L171.4 233.3 L172.1 235.1 L172.8 236.8 L173.4 238.6 L174.1 240.3 L174.8 242.0 L175.5 243.7 L176.2 245.4 L176.8 247.1 L177.5 248.8 L178.2 250.5 L178.9 252.2 L179.6 253.9 L180.2 255.6 L180.9 257.2 L181.6 258.9 L182.3 260.6 L183.0 262.2 L183.6 263.8 L184.3 265.5 L185.0 267.1 L185.7 268.8 L186.4 270.4 L187.0 272.0 L187.7 273.6 L188.4 275.2 L189.1 276.8 L189.8 278.4 L190.4 280.0 L191.1 281.6 L191.8 283.2 L192.5 284.8 L193.2 286.3 L193.8 287.9 L194.5 289.5 L195.2 291.0 L195.9 292.6 L196.6 294.1 L197.2 295.6 L197.9 297.2 L198.6 298.7 L199.3 298.2 L200.0 287.3 L200.6 273.0 L201.3 258.4 L202.0 244.4 L202.7 231.1 L203.4 218.6 L204.0 207.0 L204.7 196.1 L205.4 186.0 L206.1 176.5 L206.8 167.8 L207.4 159.7 L208.1 152.2 L208.8 145.2 L209.5 138.8 L210.2 132.9 L210.8 127.4 L211.5 122.4 L212.2 117.7 L212.9 113.5 L213.6 109.6 L214.2 106.0 L214.9 102.7 L215.6 99.7 L216.3 97.0 L217.0 94.5 L217.6 92.3 L218.3 90.3 L219.0 88.6 L219.7 87.0 L220.4 85.7 L221.0 84.6 L221.7 83.8 L222.4 83.2 L223.1 82.9 L223.8 83.0 L224.4 83.4 L225.1 84.3 L225.8 85.8 L226.5 88.0 L227.2 90.2 L227.8 92.4 L228.5 94.6 L229.2 96.8 L229.9 99.0 L230.6 101.2 L231.2 103.4 L231.9 105.6 L232.6 107.7 L233.3 109.9 L234.0 112.1 L234.6 114.2 L235.3 116.3 L236.0 118.5 L236.7 120.6 L237.4 122.7 L238.0 124.8 L238.7 127.0 L239.4 129.1 L240.1 131.2 L240.8 133.2 L241.4 135.3 L242.1 137.4 L242.8 139.5 L243.5 141.5 L244.2 143.6 L244.8 145.6 L245.5 147.7 L246.2 149.7 L246.9 151.7 L247.6 153.7 L248.2 155.8 L248.9 157.8 L249.6 159.8 L250.3 161.8 L251.0 163.7 L251.6 165.7 L252.3 167.7 L253.0 169.7 L253.7 171.6 L254.4 173.6 L255.0 175.5 L255.7 177.5 L256.4 179.4 L257.1 181.3 L257.8 183.3 L258.4 185.2 L259.1 187.1 L259.8 189.0 L260.5 190.9 L261.2 192.8 L261.8 194.7 L262.5 196.5 L263.2 198.4 L263.9 200.3 L264.6 202.1 L265.2 204.0 L265.9 205.8 L266.6 207.7 L267.3 209.5 L268.0 211.3 L268.6 213.2 L269.3 215.0 L270.0 216.8 L270.7 218.6 L271.4 220.4 L272.0 222.2 L272.7 224.0 L273.4 225.7 L274.1 227.5 L274.8 229.3 L275.4 231.0 L276.1 232.8 L276.8 234.6 L277.5 236.3 L278.2 238.0 L278.8 239.8 L279.5 241.5 L280.2 243.2 L280.9 244.9 L281.6 246.6 L282.2 248.4 L282.9 250.1 L283.6 251.7 L284.3 253.4 L285.0 255.1 L285.6 256.8 L286.3 258.5 L287.0 260.1 L287.7 261.8 L288.4 263.4 L289.0 265.1 L289.7 266.7 L290.4 268.4 L291.1 270.0 L291.8 271.6 L292.4 273.2 L293.1 274.9 L293.8 276.5 L294.5 278.1 L295.2 279.7 L295.8 281.3 L296.5 282.9 L297.2 284.4 L297.9 286.0 L298.6 287.6 L299.2 289.2 L299.9 290.7 L300.6 292.3 L301.3 293.8 L302.0 292.0 L302.6 280.1 L303.3 265.5 L304.0 250.9 L304.7 236.8 L305.4 223.6 L306.0 211.2 L306.7 199.5 L307.4 188.6 L308.1 178.5 L308.8 169.1 L309.4 160.4 L310.1 152.3 L310.8 144.8 L311.5 137.8 L312.2 131.4 L312.8 125.5 L313.5 120.0 L314.2 115.0 L314.9 110.3 L315.6 106.1 L316.2 102.2 L316.9 98.6 L317.6 95.3 L318.3 92.3 L319.0 89.6 L319.6 87.1 L320.3 84.9 L321.0 83.0 L321.7 81.2 L322.4 79.7 L323.0 78.4 L323.7 77.4 L324.4 76.6 L325.1 76.1 L325.8 75.9 L326.4 76.0 L327.1 76.6 L327.8 77.7 L328.5 79.4 L329.2 81.7 L329.8 83.9 L330.5 86.2 L331.2 88.4 L331.9 90.7 L332.6 92.9 L333.2 95.1 L333.9 97.3 L334.6 99.5 L335.3 101.7 L336.0 103.9 L336.6 106.1 L337.3 108.3 L338.0 110.5 L338.7 112.6 L339.4 114.8 L340.0 116.9 L340.7 119.1 L341.4 121.2 L342.1 123.3 L342.8 125.4 L343.4 127.6 L344.1 129.7 L344.8 131.8 L345.5 133.8 L346.2 135.9 L346.8 138.0 L347.5 140.1 L348.2 142.1 L348.9 144.2 L349.6 146.2 L350.2 148.3 L350.9 150.3 L351.6 152.3 L352.3 154.4 L353.0 156.4 L353.6 158.4 L354.3 160.4 L355.0 162.4 L355.7 164.4 L356.4 166.3 L357.0 168.3 L357.7 170.3 L358.4 172.2 L359.1 174.2 L359.8 176.1 L360.4 178.1 L361.1 180.0 L361.8 182.0 L362.5 183.9 L363.2 185.8 L363.8 187.7 L364.5 189.6 L365.2 191.5 L365.9 193.4 L366.6 195.3 L367.2 197.1 L367.9 199.0 L368.6 200.9 L369.3 202.7 L370.0 204.6 L370.6 206.4 L371.3 208.3 L372.0 210.1 L372.7 211.9 L373.4 213.8 L374.0 215.6 L374.7 217.4 L375.4 219.2 L376.1 221.0 L376.8 222.8 L377.4 224.6 L378.1 226.3 L378.8 228.1 L379.5 229.9 L380.2 231.6 L380.8 233.4 L381.5 235.1 L382.2 236.9 L382.9 238.6 L383.6 240.4 L384.2 242.1 L384.9 243.8 L385.6 245.5 L386.3 247.2 L387.0 248.9 L387.6 250.6 L388.3 252.3 L389.0 254.0 L389.7 255.7 L390.4 257.4 L391.0 259.0 L391.7 260.7 L392.4 262.4 L393.1 264.0 L393.8 265.7 L394.4 267.3 L395.1 268.9 L395.8 270.6 L396.5 272.2 L397.2 273.8 L397.8 275.4 L398.5 277.0 L399.2 278.6 L399.9 280.2 L400.6 281.8 L401.2 283.4 L401.9 285.0 L402.6 286.6 L403.3 288.2 L404.0 289.7 L404.6 286.9 L405.3 274.6 L406.0 260.1 L406.7 245.6 L407.4 231.8 L408.0 218.8 L408.7 206.6 L409.4 195.2 L410.1 184.5 L410.8 174.6 L411.4 165.4 L412.1 156.8 L412.8 148.9 L413.5 141.5 L414.2 134.7 L414.8 128.4 L415.5 122.6 L416.2 117.3 L416.9 112.4 L417.6 107.8 L418.2 103.7 L418.9 99.9 L419.6 96.4 L420.3 93.2 L421.0 90.3 L421.6 87.6 L422.3 85.2 L423.0 83.1 L423.7 81.2 L424.4 79.5 L425.0 78.1 L425.7 76.8 L426.4 75.9 L427.1 75.2 L427.8 74.7 L428.4 74.6 L429.1 74.9 L429.8 75.6 L430.5 76.9 L431.2 78.8 L431.8 81.1 L432.5 83.4 L433.2 85.6 L433.9 87.9 L434.6 90.1 L435.2 92.3 L435.9 94.6 L436.6 96.8 L437.3 99.0 L438.0 101.2 L438.6 103.4 L439.3 105.6 L440.0 107.8 L440.7 109.9 L441.4 112.1 L442.0 114.2 L442.7 116.4 L443.4 118.5 L444.1 120.7 L444.8 122.8 L445.4 124.9 L446.1 127.0 L446.8 129.1 L447.5 131.2 L448.2 133.3 L448.8 135.4 L449.5 137.5 L450.2 139.6 L450.9 141.6 L451.6 143.7 L452.2 145.7 L452.9 147.8 L453.6 149.8 L454.3 151.9 L455.0 153.9 L455.6 155.9 L456.3 157.9 L457.0 159.9 L457.7 161.9 L458.4 163.9 L459.0 165.9 L459.7 167.9 L460.4 169.8 L461.1 171.8 L461.8 173.7 L462.4 175.7 L463.1 177.6 L463.8 179.6 L464.5 181.5 L465.2 183.4 L465.8 185.3 L466.5 187.3 L467.2 189.2 L467.9 191.1 L468.6 193.0 L469.2 194.8 L469.9 196.7 L470.6 198.6 L471.3 200.5 L472.0 202.3 L472.6 204.2 L473.3 206.0 L474.0 207.9 L474.7 209.7 L475.4 211.5 L476.0 213.4 L476.7 215.2 L477.4 217.0 L478.1 218.8 L478.8 220.6 L479.4 222.4 L480.1 224.2 L480.8 226.0 L481.5 227.7 L482.2 229.5 L482.8 231.3 L483.5 233.0 L484.2 234.8 L484.9 236.5 L485.6 238.3 L486.2 240.0 L486.9 241.7 L487.6 243.4 L488.3 245.2 L489.0 246.9 L489.6 248.6 L490.3 250.3 L491.0 252.0 L491.7 253.7 L492.4 255.3 L493.0 257.0 L493.7 258.7 L494.4 260.4 L495.1 262.0 L495.8 263.7 L496.4 265.3 L497.1 267.0 L497.8 268.6 L498.5 270.2 L499.2 271.9 L499.8 273.5 L500.5 275.1 L501.2 276.7 L501.9 278.3 L502.6 279.9 L503.2 281.5 L503.9 283.1 L504.6 284.7 L505.3 286.3 L506.0 287.8 L506.6 289.4 L507.3 289.4 L508.0 279.1 L508.7 265.3 L509.4 251.3 L510.0 237.9 L510.7 225.2 L511.4 213.3 L512.1 202.2 L512.8 191.9 L513.4 182.2 L514.1 173.3 L514.8 165.0 L515.5 157.3 L516.2 150.2 L516.8 143.6 L517.5 137.6 L518.2 132.0 L518.9 126.8 L519.6 122.0 L520.2 117.7 L520.9 113.6 L521.6 110.0 L522.3 106.6 L523.0 103.5 L523.6 100.7 L524.3 98.2 L525.0 95.9 L525.7 93.8 L526.4 92.0 L527.0 90.4 L527.7 89.0 L528.4 87.9 L529.1 87.0 L529.8 86.3 L530.4 86.0 L531.1 86.0 L531.8 86.3 L532.5 87.2 L533.2 88.6 L533.8 90.6 L534.5 92.9 L535.2 95.1 L535.9 97.3 L536.6 99.5 L537.2 101.7 L537.9 103.9 L538.6 106.1 L539.3 108.3 L540.0 110.4 L540.6 112.6 L541.3 114.7 L542.0 116.9 L542.7 119.0 L543.4 121.2 L544.0 123.3 L544.7 125.4 L545.4 127.5 L546.1 129.6 L546.8 131.7 L547.4 133.8 L548.1 135.9 L548.8 138.0 L549.5 140.1 L550.2 142.1 L550.8 144.2 L551.5 146.2 L552.2 148.3 L552.9 150.3 L553.6 152.3 L554.2 154.4 L554.9 156.4 L555.6 158.4 L556.3 160.4 L557.0 162.4 L557.6 164.4 L558.3 166.4 L559.0 168.3 L559.7 170.3 L560.4 172.3 L561.0 174.2 L561.7 176.2 L562.4 178.1 L563.1 180.1 L563.8 182.0 L564.4 183.9 L565.1 185.8 L565.8 187.7 L566.5 189.7 L567.2 191.5 L567.8 193.4 L568.5 195.3 L569.2 197.2 L569.9 199.1 L570.6 200.9 L571.2 202.8 L571.9 204.7 L572.6 206.5 L573.3 208.3 L574.0 210.2 L574.6 212.0 L575.3 213.8 L576.0 215.7 L576.7 217.5 L577.4 219.3 L578.0 221.1 L578.7 222.9 L579.4 224.6 L580.1 226.4 L580.8 228.2 L581.4 230.0 L582.1 231.7 L582.8 233.5 L583.5 235.2 L584.2 237.0 L584.8 238.7 L585.5 240.5 L586.2 242.2 L586.9 243.9 L587.6 245.6 L588.2 247.3 L588.9 249.0 L589.6 250.7 L590.3 252.4 L591.0 254.1 L591.6 255.8 L592.3 257.5 L593.0 259.2 L593.7 260.8 L594.4 262.5 L595.0 264.1 L595.7 265.8 L596.4 267.4 L597.1 269.1 L597.8 270.7 L598.4 272.3 L599.1 274.0 L599.8 275.6 L600.5 277.2 L601.2 278.8 L601.8 280.4 L602.5 282.0 L603.2 283.6 L603.9 285.2 L604.6 286.7 L605.2 288.3 L605.9 289.9 L606.6 291.4 L607.3 293.0 L608.0 294.5 L608.6 296.1 L609.3 297.6 L610.0 295.5"/>
<text class="label" transform="translate(18 202) rotate(-90)" text-anchor="middle">Systemic arterial pressure (mmHg)</text>
<text class="label" x="338" y="424" text-anchor="middle">Time from onset of inspiration (s)</text>
<line class="total" style="stroke-dasharray:none" x1="626" y1="48" x2="654" y2="48"/><text class="label" x="660" y="52">arterial pressure</text>
<text class="tick" x="626" y="88">model example: PPV 6.8%</text>
<text class="tick" x="626" y="104">inspiration lasts 1.2 s</text>
<text class="tick" x="626" y="120">the value is descriptive</text>
</svg>
